<?xml version="1.0" encoding="UTF-8" standalone="no"?>
<!DOCTYPE svg PUBLIC "-//W3C//DTD SVG 1.1//EN"
 "http://www.w3.org/Graphics/SVG/1.1/DTD/svg11.dtd">
<!-- Generated by graphviz version 12.1.1 (20240910.0053)
 -->
<!-- Title: INFRA Pages: 1 -->
<svg width="572pt" height="188pt"
 viewBox="0.00 0.00 571.57 188.00" xmlns="http://www.w3.org/2000/svg" xmlns:xlink="http://www.w3.org/1999/xlink">
<g id="graph0" class="graph" transform="scale(1 1) rotate(0) translate(4 184)">
<title>INFRA</title>
<polygon fill="white" stroke="none" points="-4,4 -4,-184 567.57,-184 567.57,4 -4,4"/>
<!-- S3ForVideo -->
<g id="node1" class="node">
<title>S3ForVideo</title>
<path fill="#fff5cd" stroke="black" stroke-width="2" d="M151.39,-65.45C151.39,-69.07 121.65,-72 85.04,-72 48.43,-72 18.69,-69.07 18.69,-65.45 18.69,-65.45 18.69,-6.55 18.69,-6.55 18.69,-2.93 48.43,0 85.04,0 121.65,0 151.39,-2.93 151.39,-6.55 151.39,-6.55 151.39,-65.45 151.39,-65.45"/>
<path fill="none" stroke="black" stroke-width="2" d="M151.39,-65.45C151.39,-61.84 121.65,-58.91 85.04,-58.91 48.43,-58.91 18.69,-61.84 18.69,-65.45"/>
<text text-anchor="middle" x="85.04" y="-40.2" font-family="Arial" font-size="14.00">S3ForVideo</text>
<text text-anchor="middle" x="85.04" y="-23.4" font-family="Arial" font-size="14.00">(AWS::S3::Bucket)</text>
</g>
<!-- S3BucketPolicyForVideo -->
<g id="node2" class="node">
<title>S3BucketPolicyForVideo</title>
<path fill="#e6e6e6" stroke="black" stroke-width="2" d="M158.08,-180C158.08,-180 12,-180 12,-180 6,-180 0,-174 0,-168 0,-168 0,-120 0,-120 0,-114 6,-108 12,-108 12,-108 158.08,-108 158.08,-108 164.08,-108 170.08,-114 170.08,-120 170.08,-120 170.08,-168 170.08,-168 170.08,-174 164.08,-180 158.08,-180"/>
<text text-anchor="middle" x="85.04" y="-148.2" font-family="Arial" font-size="14.00">S3BucketPolicyForVideo</text>
<text text-anchor="middle" x="85.04" y="-131.4" font-family="Arial" font-size="14.00">(AWS::S3::BucketPolicy)</text>
</g>
<!-- S3BucketPolicyForVideo&#45;&gt;S3ForVideo -->
<g id="edge1" class="edge">
<title>S3BucketPolicyForVideo&#45;&gt;S3ForVideo</title>
<path fill="none" stroke="black" d="M85.04,-107.7C85.04,-99.93 85.04,-91.57 85.04,-83.43"/>
<polygon fill="black" stroke="black" points="88.54,-83.66 85.04,-73.66 81.54,-83.66 88.54,-83.66"/>
</g>
<!-- IAMRoleForStepFunctions -->
<g id="node3" class="node">
<title>IAMRoleForStepFunctions</title>
<path fill="#e6e6e6" stroke="black" stroke-width="2" d="M356.13,-180C356.13,-180 199.95,-180 199.95,-180 193.95,-180 187.95,-174 187.95,-168 187.95,-168 187.95,-120 187.95,-120 187.95,-114 193.95,-108 199.95,-108 199.95,-108 356.13,-108 356.13,-108 362.13,-108 368.13,-114 368.13,-120 368.13,-120 368.13,-168 368.13,-168 368.13,-174 362.13,-180 356.13,-180"/>
<text text-anchor="middle" x="278.04" y="-148.2" font-family="Arial" font-size="14.00">IAMRoleForStepFunctions</text>
<text text-anchor="middle" x="278.04" y="-131.4" font-family="Arial" font-size="14.00">(AWS::IAM::Role)</text>
</g>
<!-- IAMRoleForMediaConvert -->
<g id="node4" class="node">
<title>IAMRoleForMediaConvert</title>
<path fill="#e6e6e6" stroke="black" stroke-width="2" d="M354.95,-72C354.95,-72 201.12,-72 201.12,-72 195.12,-72 189.12,-66 189.12,-60 189.12,-60 189.12,-12 189.12,-12 189.12,-6 195.12,0 201.12,0 201.12,0 354.95,0 354.95,0 360.95,0 366.95,-6 366.95,-12 366.95,-12 366.95,-60 366.95,-60 366.95,-66 360.95,-72 354.95,-72"/>
<text text-anchor="middle" x="278.04" y="-40.2" font-family="Arial" font-size="14.00">IAMRoleForMediaConvert</text>
<text text-anchor="middle" x="278.04" y="-23.4" font-family="Arial" font-size="14.00">(AWS::IAM::Role)</text>
</g>
<!-- IAMRoleForStepFunctions&#45;&gt;IAMRoleForMediaConvert -->
<g id="edge2" class="edge">
<title>IAMRoleForStepFunctions&#45;&gt;IAMRoleForMediaConvert</title>
<path fill="none" stroke="black" d="M278.04,-107.7C278.04,-99.93 278.04,-91.57 278.04,-83.43"/>
<polygon fill="black" stroke="black" points="281.54,-83.66 278.04,-73.66 274.54,-83.66 281.54,-83.66"/>
</g>
<!-- IAMRoleForNovaLambda -->
<g id="node5" class="node">
<title>IAMRoleForNovaLambda</title>
<path fill="#e6e6e6" stroke="black" stroke-width="2" d="M550.02,-72C550.02,-72 400.06,-72 400.06,-72 394.06,-72 388.06,-66 388.06,-60 388.06,-60 388.06,-12 388.06,-12 388.06,-6 394.06,0 400.06,0 400.06,0 550.02,0 550.02,0 556.02,0 562.02,-6 562.02,-12 562.02,-12 562.02,-60 562.02,-60 562.02,-66 556.02,-72 550.02,-72"/>
<text text-anchor="middle" x="475.04" y="-40.2" font-family="Arial" font-size="14.00">IAMRoleForNovaLambda</text>
<text text-anchor="middle" x="475.04" y="-23.4" font-family="Arial" font-size="14.00">(AWS::IAM::Role)</text>
</g>
<!-- LambdaForNovaAnalysis -->
<g id="node6" class="node">
<title>LambdaForNovaAnalysis</title>
<path fill="#b7e0ff" stroke="black" stroke-width="2" d="M551.57,-180C551.57,-180 398.51,-180 398.51,-180 392.51,-180 386.51,-174 386.51,-168 386.51,-168 386.51,-120 386.51,-120 386.51,-114 392.51,-108 398.51,-108 398.51,-108 551.57,-108 551.57,-108 557.57,-108 563.57,-114 563.57,-120 563.57,-120 563.57,-168 563.57,-168 563.57,-174 557.57,-180 551.57,-180"/>
<text text-anchor="middle" x="475.04" y="-148.2" font-family="Arial" font-size="14.00">LambdaForNovaAnalysis</text>
<text text-anchor="middle" x="475.04" y="-131.4" font-family="Arial" font-size="14.00">(AWS::Lambda::Function)</text>
</g>
<!-- LambdaForNovaAnalysis&#45;&gt;IAMRoleForNovaLambda -->
<g id="edge3" class="edge">
<title>LambdaForNovaAnalysis&#45;&gt;IAMRoleForNovaLambda</title>
<path fill="none" stroke="black" d="M475.04,-107.7C475.04,-99.93 475.04,-91.57 475.04,-83.43"/>
<polygon fill="black" stroke="black" points="478.54,-83.66 475.04,-73.66 471.54,-83.66 478.54,-83.66"/>
</g>
</g>
</svg>
